<svg xmlns="http://www.w3.org/2000/svg" width="800" height="680" viewBox="0 0 800 680" role="img" aria-labelledby="t d"><title id="t">Backend architecture feature</title><desc id="d">Client flows to API gateway and a service layer running in Docker and Kubernetes, then to events, data, cache, and observability.</desc><defs><filter id="s"><feDropShadow dx="0" dy="4" stdDeviation="6" flood-color="#000" flood-opacity=".22"/></filter><marker id="a" viewBox="0 0 10 10" refX="8" refY="5" markerWidth="6" markerHeight="6" orient="auto"><path d="M0 0l10 5-10 5z" fill="#667085"/></marker></defs><style>.h{font:800 17px ui-sans-serif,system-ui;fill:#f2f4f7}.k{font:800 11px ui-monospace,monospace;fill:#aeb8c8;letter-spacing:1px}.p{font:13px ui-sans-serif,system-ui;fill:#b9c0cc}.f{fill:none;stroke:#667085;stroke-width:1.8;marker-end:url(#a)}@media(prefers-reduced-motion:reduce){.e{display:none}}</style><rect width="800" height="680" rx="24" fill="#151827"/><text x="32" y="47" class="h">SYSTEM THINKING / FEATURE VIEW</text><text x="768" y="47" text-anchor="end" class="k">CONCEPTUAL ARCHITECTURE</text><g class="f"><path d="M400 122V160M400 222V276M400 386V435M400 545V588"/></g><g filter="url(#s)"><rect x="305" y="72" width="190" height="50" rx="16" fill="#1f2937" stroke="#475467"/><text x="400" y="103" text-anchor="middle" class="h">CLIENT</text><rect x="285" y="160" width="230" height="62" rx="18" fill="#233650" stroke="#5278ae"/><text x="400" y="188" text-anchor="middle" class="k" fill="#94b7ed">ENTRY</text><text x="400" y="209" text-anchor="middle" class="h">API GATEWAY</text><rect x="86" y="258" width="628" height="146" rx="28" fill="#1b2940" stroke="#5278ae" stroke-dasharray="6 6"/><text x="114" y="285" class="k" fill="#94b7ed">RUNTIME · DOCKER / KUBERNETES</text><rect x="236" y="300" width="328" height="86" rx="22" fill="#173e3b" stroke="#4fb8aa" stroke-width="2"/><text x="400" y="333" text-anchor="middle" class="k" fill="#7dd3c7">CORE</text><text x="400" y="360" text-anchor="middle" class="h" font-size="22">SERVICE LAYER</text><rect x="46" y="435" width="215" height="110" rx="22" fill="#332d50" stroke="#7667a9"/><text x="70" y="463" class="k" fill="#b9a7eb">EVENTS</text><text x="70" y="497" class="h">Kafka</text><text x="70" y="524" class="p">asynchronous flow</text><rect x="293" y="435" width="215" height="110" rx="22" fill="#233650" stroke="#5278ae"/><text x="317" y="463" class="k" fill="#94b7ed">DATA</text><text x="317" y="497" class="h">PostgreSQL · Oracle</text><text x="317" y="524" class="p">durable state</text><rect x="540" y="435" width="214" height="110" rx="22" fill="#214331" stroke="#4c9b69"/><text x="564" y="463" class="k" fill="#8bd1a2">CACHE</text><text x="564" y="497" class="h">Redis</text><text x="564" y="524" class="p">fast access paths</text><rect x="238" y="588" width="324" height="62" rx="20" fill="#4a2d26" stroke="#b16f58"/><text x="400" y="613" text-anchor="middle" class="k" fill="#f1a98d">OBSERVABILITY</text><text x="400" y="637" text-anchor="middle" class="h">Grafana · Prometheus</text></g><path d="M400 404V420H153V435M400 420V435M400 420H647V435" class="f"/><circle class="e" r="5" fill="#b9a7eb"><animateMotion dur="7s" repeatCount="indefinite" path="M400 122V343V420H153V490"/></circle></svg>
