<svg xmlns="http://www.w3.org/2000/svg" width="800" height="680" viewBox="0 0 800 680" role="img" aria-labelledby="t d"><title id="t">Backend architecture feature</title><desc id="d">Client flows to API gateway and a service layer running in Docker and Kubernetes, then to events, data, cache, and observability.</desc><defs><filter id="s"><feDropShadow dx="0" dy="4" stdDeviation="6" flood-color="#344054" flood-opacity=".09"/></filter><marker id="a" viewBox="0 0 10 10" refX="8" refY="5" markerWidth="6" markerHeight="6" orient="auto"><path d="M0 0l10 5-10 5z" fill="#98a2b3"/></marker></defs><style>.h{font:800 17px ui-sans-serif,system-ui;fill:#243145}.k{font:800 11px ui-monospace,monospace;fill:#667085;letter-spacing:1px}.p{font:13px ui-sans-serif,system-ui;fill:#475467}.f{fill:none;stroke:#98a2b3;stroke-width:1.8;marker-end:url(#a)}@media(prefers-reduced-motion:reduce){.e{display:none}}</style><rect width="800" height="680" rx="24" fill="#fbfcfe"/><text x="32" y="47" class="h">SYSTEM THINKING / FEATURE VIEW</text><text x="768" y="47" text-anchor="end" class="k">CONCEPTUAL ARCHITECTURE</text><g class="f"><path d="M400 122V160M400 222V276M400 386V435M400 545V588"/></g><g filter="url(#s)"><rect x="305" y="72" width="190" height="50" rx="16" fill="#fff" stroke="#cdd5df"/><text x="400" y="103" text-anchor="middle" class="h">CLIENT</text><rect x="285" y="160" width="230" height="62" rx="18" fill="#e8f1ff" stroke="#94b7ed"/><text x="400" y="188" text-anchor="middle" class="k" fill="#4d7fc9">ENTRY</text><text x="400" y="209" text-anchor="middle" class="h">API GATEWAY</text><rect x="86" y="258" width="628" height="146" rx="28" fill="#f2f6ff" stroke="#94b7ed" stroke-dasharray="6 6"/><text x="114" y="285" class="k" fill="#4d7fc9">RUNTIME · DOCKER / KUBERNETES</text><rect x="236" y="300" width="328" height="86" rx="22" fill="#e7f7f4" stroke="#7dd3c7" stroke-width="2"/><text x="400" y="333" text-anchor="middle" class="k" fill="#168478">CORE</text><text x="400" y="360" text-anchor="middle" class="h" font-size="22">SERVICE LAYER</text><rect x="46" y="435" width="215" height="110" rx="22" fill="#eeeaff" stroke="#b9a7eb"/><text x="70" y="463" class="k" fill="#8066c2">EVENTS</text><text x="70" y="497" class="h">Kafka</text><text x="70" y="524" class="p">asynchronous flow</text><rect x="293" y="435" width="215" height="110" rx="22" fill="#e8f1ff" stroke="#94b7ed"/><text x="317" y="463" class="k" fill="#4d7fc9">DATA</text><text x="317" y="497" class="h">PostgreSQL · Oracle</text><text x="317" y="524" class="p">durable state</text><rect x="540" y="435" width="214" height="110" rx="22" fill="#e9f9ef" stroke="#8bd1a2"/><text x="564" y="463" class="k" fill="#3a9b5a">CACHE</text><text x="564" y="497" class="h">Redis</text><text x="564" y="524" class="p">fast access paths</text><rect x="238" y="588" width="324" height="62" rx="20" fill="#fff0e9" stroke="#f1a98d"/><text x="400" y="613" text-anchor="middle" class="k" fill="#d57650">OBSERVABILITY</text><text x="400" y="637" text-anchor="middle" class="h">Grafana · Prometheus</text></g><path d="M400 404V420H153V435M400 420V435M400 420H647V435" class="f"/><circle class="e" r="5" fill="#8b5cf6"><animateMotion dur="7s" repeatCount="indefinite" path="M400 122V343V420H153V490"/></circle></svg>
